<?xml version="1.0" standalone="no"?>
<!DOCTYPE svg PUBLIC "-//W3C//DTD SVG 20010904//EN"
 "http://www.w3.org/TR/2001/REC-SVG-20010904/DTD/svg10.dtd">
<svg version="1.0" xmlns="http://www.w3.org/2000/svg"
 width="444.000000pt" height="164.000000pt" viewBox="0 0 444.000000 164.000000"
 preserveAspectRatio="xMidYMid meet">
<metadata>
Created by potrace 1.16, written by Peter Selinger 2001-2019
</metadata>
<g transform="translate(0.000000,164.000000) scale(0.100000,-0.100000)"
fill="#000000" stroke="none">
<path d="M0 820 l0 -820 2220 0 2220 0 0 820 0 820 -2220 0 -2220 0 0 -820z
m1080 159 c21 -6 51 -22 66 -35 l29 -23 -36 -37 -37 -36 -30 22 c-39 29 -107
32 -146 7 -56 -37 -72 -141 -31 -203 35 -54 125 -66 179 -23 32 25 37 24 71
-11 l29 -30 -24 -25 c-37 -39 -99 -58 -179 -53 -58 3 -78 9 -113 33 -92 65
-124 194 -74 301 47 102 173 150 296 113z m-446 -206 c49 -114 91 -213 93
-220 4 -10 -10 -13 -51 -13 l-57 0 -19 45 -19 45 -89 0 -89 0 -17 -45 -18 -45
-54 0 c-30 0 -54 3 -54 6 0 4 41 103 91 220 l91 214 52 0 51 0 89 -207z m716
-13 l0 -220 -54 0 -55 0 -3 118 c-2 64 -2 163 0 220 l3 102 55 0 54 0 0 -220z
m615 -2 l93 -218 -58 0 -58 0 -18 45 -17 45 -86 0 -87 0 -22 -45 -22 -45 -56
0 c-41 0 -55 3 -51 13 23 56 178 411 183 418 3 6 28 9 56 7 l49 -3 94 -217z
m384 118 c51 -27 55 -41 24 -76 l-29 -32 -36 21 c-66 40 -118 5 -118 -79 1
-61 26 -94 74 -94 20 0 44 8 56 19 21 19 21 18 52 -12 26 -26 29 -35 19 -46
-36 -44 -153 -62 -210 -33 -128 67 -134 254 -11 325 42 25 137 28 179 7z m311
-3 c17 -12 25 -13 28 -5 2 7 25 12 58 12 l54 0 0 -220 0 -220 -55 0 -55 0 0
66 0 65 -26 -20 c-37 -29 -110 -28 -155 2 -138 91 -80 337 80 337 28 0 56 -7
71 -17z m980 -32 c0 -45 -2 -49 -31 -57 -57 -16 -74 -53 -73 -155 l1 -89 -54
0 -53 0 0 170 0 170 50 0 c45 0 50 -2 50 -22 0 -22 1 -22 27 5 17 16 38 27 55
27 27 0 28 -2 28 -49z m290 26 c45 -29 69 -74 77 -136 l6 -51 -123 0 -122 0
14 -22 c9 -13 27 -30 42 -38 24 -14 30 -13 68 8 l42 22 28 -27 c27 -25 27 -27
10 -46 -33 -37 -72 -49 -137 -45 -112 7 -171 76 -163 192 7 106 68 166 169
166 42 0 65 -6 89 -23z m340 -26 c0 -45 -2 -49 -31 -57 -58 -16 -76 -64 -78
-201 l-1 -43 -50 0 -50 0 0 170 0 170 50 0 c45 0 50 -2 50 -22 0 -22 1 -22 27
5 17 16 38 27 55 27 27 0 28 -2 28 -49z m-1300 -76 c0 -111 1 -115 25 -131 23
-15 27 -15 50 0 24 16 25 20 25 131 l0 115 55 0 55 0 0 -170 0 -170 -55 0
c-31 0 -55 4 -55 10 0 6 -13 4 -30 -5 -38 -19 -99 -19 -128 1 -43 30 -52 64
-52 204 l0 130 55 0 55 0 0 -115z m390 -55 l0 -170 -55 0 -55 0 0 170 0 170
55 0 55 0 0 -170z"/>
<path d="M2584 798 c-62 -29 -57 -152 6 -178 81 -33 137 95 71 161 -31 31 -44
34 -77 17z"/>
</g>
</svg>
